<?xml version="1.0" encoding="iso-8859-1"?>
<!-- Generator: Adobe Illustrator 19.0.0, SVG Export Plug-In . SVG Version: 6.00 Build 0)  -->
<svg version="1.1" id="Layer_1" xmlns="http://www.w3.org/2000/svg" xmlns:xlink="http://www.w3.org/1999/xlink" x="0px" y="0px"
	 viewBox="0 0 512.001 512.001" style="enable-background:new 0 0 512.001 512.001;" xml:space="preserve">
<g>
	<g>
		<g>
			<path d="M511.016,491.9l-151.51-323.918c-1.719-3.675-5.409-6.022-9.465-6.022c-0.014,0-0.028,0-0.042,0
				c-4.072,0.017-7.764,2.397-9.458,6.099l-62.077,135.58L192.356,115.81c-1.702-3.714-5.413-6.095-9.498-6.095
				c-4.086,0-7.796,2.381-9.498,6.095L96.665,283.097L0.95,491.974c-1.483,3.235-1.217,7.002,0.705,9.997
				c1.922,2.995,5.236,4.805,8.794,4.805h191.112h153.705h146.286c3.573,0,6.898-1.825,8.816-4.84
				C512.286,498.921,512.53,495.136,511.016,491.9z M201.562,485.878H26.731l85.225-185.988c1.849,1.201,3.656,2.951,6.014,5.308
				c5.703,5.696,13.511,13.496,28.316,13.496c14.777,0,22.586-7.809,28.286-13.51c5.123-5.123,7.636-7.388,13.51-7.388
				c5.873,0,8.386,2.265,13.509,7.388c5.701,5.701,13.509,13.51,28.286,13.51v-20.898c-5.873,0-8.386-2.265-13.51-7.388
				c-5.701-5.701-13.509-13.509-28.286-13.509c-14.777,0-22.586,7.809-28.286,13.509c-5.123,5.123-7.636,7.388-13.51,7.388
				c-5.906,0-8.421-2.263-13.544-7.382c-3.093-3.09-6.858-6.832-12.047-9.587l62.162-135.59l86.113,187.841l70.013,152.8H201.562z
				 M361.972,485.878l-72.009-157.155l60.18-131.436l43.423,92.834c-6.394,2.789-10.778,7.173-14.341,10.735
				c-5.123,5.123-7.636,7.388-13.509,7.388c-5.873,0-8.386-2.265-13.509-7.388c-5.701-5.701-13.51-13.509-28.286-13.509v20.898
				c5.873,0,8.386,2.265,13.509,7.388c5.701,5.701,13.509,13.51,28.286,13.51c14.777,0,22.585-7.809,28.286-13.51
				c3.371-3.372,5.615-5.497,8.427-6.563l82.701,176.807H361.972z"/>
			<path d="M331.152,98.154l-14.621,14.621l14.778,14.778l14.621-14.621c4.416,2.785,9.323,4.854,14.562,6.048v22.082h20.898
				v-22.083c5.239-1.194,10.146-3.262,14.562-6.048l14.621,14.621l14.778-14.778l-14.621-14.621
				c2.785-4.416,4.854-9.323,6.048-14.562h22.081V62.694h-22.083c-1.194-5.239-3.262-10.146-6.048-14.562l14.621-14.621
				L410.57,18.733l-14.621,14.621c-4.416-2.786-9.323-4.854-14.562-6.048V5.225h-20.898v22.083
				c-5.239,1.194-10.146,3.262-14.562,6.048l-14.621-14.621l-14.778,14.778l14.621,14.621c-2.785,4.416-4.854,9.323-6.048,14.562
				h-22.081v20.898h22.083C326.298,88.831,328.366,93.738,331.152,98.154z M370.939,47.021c14.404,0,26.122,11.719,26.122,26.122
				s-11.719,26.122-26.122,26.122s-26.122-11.719-26.122-26.122S356.535,47.021,370.939,47.021z"/>
			<path d="M73.143,31.347c5.762,0,10.449,4.687,10.449,10.449h20.898c0-5.762,4.687-10.449,10.449-10.449
				c5.762,0,10.449,4.687,10.449,10.449h20.898c0-17.285-14.062-31.347-31.347-31.347c-8.023,0-15.347,3.032-20.898,8.008
				c-5.549-4.976-12.875-8.008-20.898-8.008c-17.285,0-31.347,14.062-31.347,31.347h20.898
				C62.694,36.035,67.382,31.347,73.143,31.347z"/>
			<path d="M125.388,83.592h20.898c0-5.762,4.687-10.449,10.449-10.449c5.762,0,10.449,4.687,10.449,10.449h20.898
				c0-5.762,4.687-10.449,10.449-10.449c5.762,0,10.449,4.687,10.449,10.449h20.898c0-17.285-14.062-31.347-31.347-31.347
				c-8.023,0-15.347,3.032-20.898,8.008c-5.549-4.976-12.875-8.008-20.898-8.008C139.45,52.245,125.388,66.307,125.388,83.592z"/>
		</g>
	</g>
</g>
<g>
</g>
<g>
</g>
<g>
</g>
<g>
</g>
<g>
</g>
<g>
</g>
<g>
</g>
<g>
</g>
<g>
</g>
<g>
</g>
<g>
</g>
<g>
</g>
<g>
</g>
<g>
</g>
<g>
</g>
</svg>
